<?xml version="1.0" encoding="UTF-8"?>
<svg xmlns="http://www.w3.org/2000/svg" viewBox="0 0 1200 720" font-family="Inter, Segoe UI, Arial, sans-serif">
  <defs>
    <linearGradient id="bg" x1="0" y1="0" x2="0" y2="1">
      <stop offset="0" stop-color="#0B1220"/><stop offset="1" stop-color="#111A2E"/>
    </linearGradient>
    <linearGradient id="aud" x1="0" y1="0" x2="1" y2="1">
      <stop offset="0" stop-color="#0C4A6E"/><stop offset="1" stop-color="#38BDF8"/>
    </linearGradient>
    <linearGradient id="prm" x1="0" y1="0" x2="1" y2="1">
      <stop offset="0" stop-color="#2E1065"/><stop offset="1" stop-color="#A78BFA"/>
    </linearGradient>
    <filter id="sh" x="-10%" y="-10%" width="120%" height="120%">
      <feDropShadow dx="0" dy="3" stdDeviation="4" flood-color="#000" flood-opacity="0.4"/>
    </filter>
  </defs>
  <rect width="1200" height="720" fill="url(#bg)"/>
  <text x="600" y="48" text-anchor="middle" fill="#E2E8F0" font-size="26" font-weight="700">5 temas · 2 palcos — Universo TOTVS 2026</text>
  <text x="600" y="76" text-anchor="middle" fill="#94A3B8" font-size="14">Recomendação: #3 ou #4 no auditório + #5 no Prêmio Brasil Que Faz.</text>

  <!-- Coluna Auditório -->
  <g filter="url(#sh)">
    <rect x="50" y="110" width="740" height="560" rx="16" fill="url(#aud)" opacity="0.16"/>
  </g>
  <rect x="50" y="110" width="740" height="52" rx="16" fill="url(#aud)"/>
  <text x="420" y="144" text-anchor="middle" fill="#F0F9FF" font-size="19" font-weight="700">🎤 Auditório presencial · ~200 pessoas · plateia mista</text>

  <!-- Cards auditório -->
  <g font-family="Inter, Segoe UI, Arial, sans-serif">
    <!-- Tema 1 -->
    <g filter="url(#sh)">
      <rect x="72" y="182" width="340" height="150" rx="12" fill="#0F172A"/>
      <rect x="72" y="182" width="6" height="150" rx="3" fill="#22D3EE"/>
      <circle cx="104" cy="214" r="16" fill="#22D3EE"/><text x="104" y="219" text-anchor="middle" fill="#0B1220" font-size="15" font-weight="700">1</text>
      <text x="132" y="211" fill="#E2E8F0" font-size="15" font-weight="700">SOC autônomo</text>
      <text x="132" y="231" fill="#94A3B8" font-size="12">Deixei uma IA cuidar do meu SOC por um dia</text>
      <text x="94" y="264" fill="#5EEAD4" font-size="12">▸ Demo de SOC agêntico ao vivo</text>
      <text x="94" y="286" fill="#94A3B8" font-size="12">Reaproveita: cybersec-ai-operations-book,</text>
      <text x="94" y="304" fill="#94A3B8" font-size="12">SOAR+IA, CECyber Range (SOC/Blue)</text>
    </g>
    <!-- Tema 2 -->
    <g filter="url(#sh)">
      <rect x="428" y="182" width="340" height="150" rx="12" fill="#0F172A"/>
      <rect x="428" y="182" width="6" height="150" rx="3" fill="#FB7185"/>
      <circle cx="460" cy="214" r="16" fill="#FB7185"/><text x="460" y="219" text-anchor="middle" fill="#0B1220" font-size="15" font-weight="700">2</text>
      <text x="488" y="211" fill="#E2E8F0" font-size="15" font-weight="700">IA hackeada</text>
      <text x="488" y="231" fill="#94A3B8" font-size="12">A IA que você contratou pode ser hackeada</text>
      <text x="450" y="264" fill="#FCA5A5" font-size="12">▸ Demo de prompt injection + checklist</text>
      <text x="450" y="286" fill="#94A3B8" font-size="12">Reaproveita: Cryp2pentest, EASM,</text>
      <text x="450" y="304" fill="#94A3B8" font-size="12">grc-ia-multicloud, vibe-hacking</text>
    </g>
    <!-- Tema 3 -->
    <g filter="url(#sh)">
      <rect x="72" y="348" width="340" height="150" rx="12" fill="#0F172A"/>
      <rect x="72" y="348" width="6" height="150" rx="3" fill="#FCD34D"/>
      <circle cx="104" cy="380" r="16" fill="#FCD34D"/><text x="104" y="385" text-anchor="middle" fill="#0B1220" font-size="15" font-weight="700">3</text>
      <text x="132" y="377" fill="#E2E8F0" font-size="15" font-weight="700">Anatomia de ataque a ERP SaaS ★</text>
      <text x="132" y="397" fill="#94A3B8" font-size="12">Do phishing ao game over — ao vivo</text>
      <text x="94" y="430" fill="#FBBF24" font-size="12">▸ Ataque encenado + threat modeling STRIDE</text>
      <text x="94" y="452" fill="#94A3B8" font-size="12">Reaproveita: aula-totvs (ERP multi-tenant),</text>
      <text x="94" y="470" fill="#94A3B8" font-size="12">Visão Técnica 2025, APACHE-SHUTDOWN</text>
    </g>
    <!-- Tema 4 -->
    <g filter="url(#sh)">
      <rect x="428" y="348" width="340" height="150" rx="12" fill="#0F172A"/>
      <rect x="428" y="348" width="6" height="150" rx="3" fill="#34D399"/>
      <circle cx="460" cy="380" r="16" fill="#34D399"/><text x="460" y="385" text-anchor="middle" fill="#0B1220" font-size="15" font-weight="700">4</text>
      <text x="488" y="377" fill="#E2E8F0" font-size="15" font-weight="700">Tabletop ao vivo ★</text>
      <text x="488" y="397" fill="#94A3B8" font-size="12">200 pessoas decidem uma crise cibernética</text>
      <text x="450" y="430" fill="#6EE7B7" font-size="12">▸ Votação da plateia + deepfake do CEO</text>
      <text x="450" y="452" fill="#94A3B8" font-size="12">Reaproveita: plataforma-ttx, Cyber</text>
      <text x="450" y="470" fill="#94A3B8" font-size="12">Decision, WargameFebraban</text>
    </g>
  </g>
  <text x="420" y="540" text-anchor="middle" fill="#7DD3FC" font-size="12">★ favoritos para plateia mista — engajam técnico e gestão juntos</text>

  <!-- Coluna Prêmio -->
  <g filter="url(#sh)">
    <rect x="812" y="110" width="338" height="560" rx="16" fill="url(#prm)" opacity="0.16"/>
  </g>
  <rect x="812" y="110" width="338" height="52" rx="16" fill="url(#prm)"/>
  <text x="981" y="144" text-anchor="middle" fill="#F5F3FF" font-size="17" font-weight="700">🏆 Prêmio Brasil Que Faz</text>
  <g filter="url(#sh)">
    <rect x="834" y="182" width="294" height="316" rx="12" fill="#0F172A"/>
    <rect x="834" y="182" width="6" height="316" rx="3" fill="#A78BFA"/>
    <circle cx="866" cy="214" r="16" fill="#A78BFA"/><text x="866" y="219" text-anchor="middle" fill="#0B1220" font-size="15" font-weight="700">5</text>
    <text x="894" y="211" fill="#E2E8F0" font-size="15" font-weight="700">O Brasil que faz</text>
    <text x="894" y="231" fill="#94A3B8" font-size="12">tecnologia confiável na era da IA</text>
    <text x="856" y="272" fill="#C4B5FD" font-size="12">▸ Tom institucional / inspiracional</text>
    <text x="856" y="298" fill="#C4B5FD" font-size="12">▸ Framework de governança de IA</text>
    <text x="856" y="324" fill="#C4B5FD" font-size="12">   (NIST AI RMF) de 1 slide</text>
    <text x="856" y="350" fill="#C4B5FD" font-size="12">▸ Risco cyber como risco de negócio</text>
    <text x="856" y="376" fill="#C4B5FD" font-size="12">▸ O profissional de segurança do futuro</text>
    <line x1="856" y1="398" x2="1106" y2="398" stroke="#2E1065" stroke-width="1"/>
    <text x="856" y="426" fill="#94A3B8" font-size="12">Reaproveita: advisory-conselhos,</text>
    <text x="856" y="444" fill="#94A3B8" font-size="12">Governança de IA para Boards,</text>
    <text x="856" y="462" fill="#94A3B8" font-size="12">pilulas-executivos, grc-ia-multicloud</text>
  </g>
  <text x="981" y="540" text-anchor="middle" fill="#C4B5FD" font-size="12">único desenhado para este palco</text>

  <text x="600" y="700" text-anchor="middle" fill="#64748B" font-size="12">Todos os temas: ~45–60 min · parte prática/aplicada obrigatória</text>
</svg>
